<svg width="16" height="16" viewBox="0 0 16 16" xmlns="http://www.w3.org/2000/svg">
  <g fill="#AFB1B3">
    <path d="M4 1.75h5.35l3.15 3.1V13a1.25 1.25 0 0 1-1.25 1.25H4A1.25 1.25 0 0 1 2.75 13V3A1.25 1.25 0 0 1 4 1.75Zm4.75 1.5H4.25v9.5h6.75V5.5H8.75V3.25Z"/>
    <path d="M6.9 4.3 7.55 6l1.75.65-1.75.65-.65 1.7-.65-1.7-1.75-.65L6.25 6l.65-1.7Zm3.55 4.35.47 1.23 1.23.47-1.23.47-.47 1.23-.47-1.23-1.23-.47 1.23-.47.47-1.23Z"/>
    <path d="M2 10.75h1.25V9.5a.75.75 0 0 1 1.5 0v1.25H6a.75.75 0 0 1 0 1.5H4.75v1.25a.75.75 0 0 1-1.5 0v-1.25H2a.75.75 0 0 1 0-1.5Z"/>
  </g>
</svg>
