<svg width="16" height="16" viewBox="0 0 16 16" xmlns="http://www.w3.org/2000/svg">
  <g fill="#AFB1B3" fill-rule="evenodd">
    <path d="M5 2.5a.5.5 0 0 1 1 0v1.05a3.25 3.25 0 0 1 2 1.3V4.5a.5.5 0 0 1 1 0v.35a3.25 3.25 0 0 1 1.34-1.09l.61-.25a.5.5 0 1 1 .38.92l-.61.25A2.25 2.25 0 0 0 9.34 6H10.5a.5.5 0 0 1 0 1H9.75v1h.75a.5.5 0 0 1 0 1H9.34a2.25 2.25 0 0 0 1.38 1.32l.61.25a.5.5 0 0 1-.38.92l-.61-.25A3.25 3.25 0 0 1 9 10.15v.35a.5.5 0 0 1-1 0v-.35a3.25 3.25 0 0 1-2-1.3v3.65a1 1 0 0 0 1 1h5a1 1 0 0 0 1-1V6.91a1 1 0 0 0-.3-.7l-2.91-2.9A1 1 0 0 0 9.09 3H7a1 1 0 0 0-1 1v.85A3.22 3.22 0 0 0 5 3.55V2.5zm3 6.5a2.25 2.25 0 1 0 0-4.5A2.25 2.25 0 0 0 8 9z"/>
    <path d="M3 8.5a.5.5 0 0 1 .5.5v1h1a.5.5 0 0 1 0 1h-1v1a.5.5 0 0 1-1 0v-1h-1a.5.5 0 0 1 0-1h1V9a.5.5 0 0 1 .5-.5z"/>
  </g>
</svg>
