<svg width="16" height="16" viewBox="0 0 16 16" xmlns="http://www.w3.org/2000/svg">
  <g fill="#AFB1B3">
    <path d="M2.5 3.25A1.25 1.25 0 0 1 3.75 2h8.5a1.25 1.25 0 0 1 0 2.5h-8.5A1.25 1.25 0 0 1 2.5 3.25Zm0 4A1.25 1.25 0 0 1 3.75 6h6.5a1.25 1.25 0 0 1 0 2.5h-6.5A1.25 1.25 0 0 1 2.5 7.25Zm0 4A1.25 1.25 0 0 1 3.75 10h8.5a1.25 1.25 0 0 1 0 2.5h-8.5A1.25 1.25 0 0 1 2.5 11.25Z"/>
    <path d="m11.4 5.15.95.95 1.4-1.4a.75.75 0 1 1 1.06 1.06l-1.93 1.93a.75.75 0 0 1-1.06 0L10.34 6.2a.75.75 0 0 1 1.06-1.06Z"/>
  </g>
</svg>
