<svg width="16" height="16" viewBox="0 0 16 16" xmlns="http://www.w3.org/2000/svg">
  <g fill="#6E6E6E" fill-rule="evenodd">
    <path d="M4 2a1 1 0 0 0-1 1v10a1 1 0 0 0 1 1h8a1 1 0 0 0 1-1V5.91a1 1 0 0 0-.3-.7L10.09 2.3A1 1 0 0 0 9.38 2H4zm0 1h5v2a1 1 0 0 0 1 1h2v7H4V3z"/>
    <path d="M5.5 7a.5.5 0 0 1 0-1h5a.5.5 0 0 1 0 1h-5zm0 2a.5.5 0 0 1 0-1h3.5a.5.5 0 0 1 0 1H5.5zm0 2a.5.5 0 0 1 0-1h5a.5.5 0 0 1 0 1h-5z"/>
    <path d="M1.5 5a.5.5 0 0 1 .5.5v4a.5.5 0 0 1-1 0v-4a.5.5 0 0 1 .5-.5zm0 6a.75.75 0 1 1 0 1.5A.75.75 0 0 1 1.5 11z"/>
  </g>
</svg>
