<svg width="16" height="16" viewBox="0 0 16 16" xmlns="http://www.w3.org/2000/svg">
  <g fill="#6E6E6E">
    <path d="M3.5 2h6a1.5 1.5 0 0 1 0 3h-6a1.5 1.5 0 0 1 0-3Zm0 4.5h4.75a1.25 1.25 0 0 1 0 2.5H3.5a1.25 1.25 0 0 1 0-2.5Zm0 4.5h5.5a1.25 1.25 0 0 1 0 2.5H3.5a1.25 1.25 0 0 1 0-2.5Z"/>
    <path d="m10.9 1.95 3.15 3.15a.9.9 0 0 1 0 1.27l-3.96 3.96a1.2 1.2 0 0 1-.55.32l-2.06.52.52-2.06a1.2 1.2 0 0 1 .32-.55l3.95-3.95a.9.9 0 0 0-1.27-1.27L7.05 7.3a2.7 2.7 0 0 0-.72 1.22l-.83 3.3a.75.75 0 0 0 .91.91l3.3-.83a2.7 2.7 0 0 0 1.22-.72l3.96-3.96a2.4 2.4 0 0 0 0-3.4l-3.15-3.15a.75.75 0 0 0-1.06 1.06Z"/>
  </g>
</svg>
