<svg width="16" height="16" viewBox="0 0 16 16" xmlns="http://www.w3.org/2000/svg">
  <g fill="#AFB1B3">
    <path d="M4 1.75h5.4l2.85 2.8V13A1.25 1.25 0 0 1 11 14.25H4A1.25 1.25 0 0 1 2.75 13V3A1.25 1.25 0 0 1 4 1.75Zm4.5 1.5H4.25v9.5H10.75V5.25H8.5v-2Z"/>
    <path d="M9.75 8.75a3.75 3.75 0 1 1-1.1-2.65l.73-.73a.75.75 0 1 1 1.06 1.06l-1.2 1.2a.75.75 0 0 1-1.06 0l-.93-.93a.75.75 0 0 1 1.06-1.06l.15.15a5.25 5.25 0 1 0 1.8 3.96.75.75 0 0 1 1.5 0 5.25 5.25 0 1 1-1.5-3.66v.66a.75.75 0 0 1-1.5 0v-1.8c0-.41.34-.75.75-.75h1.8a.75.75 0 0 1 0 1.5h-.41c.69.75 1.11 1.76 1.11 2.85a.75.75 0 1 1-1.5 0 2.25 2.25 0 1 0-.66 1.59l.02-.02a.75.75 0 0 1 1.04 1.08l-.02.02A3.74 3.74 0 0 1 9.75 8.75Z"/>
    <path d="M9 7v1.45l1 .55a.75.75 0 0 1-.72 1.32l-1.39-.76A.75.75 0 0 1 7.5 8.9V7A.75.75 0 0 1 9 7Z"/>
  </g>
</svg>
